<!-- Created with Inkscape (http://www.inkscape.org/) -->
<svg xmlns:inkscape="http://www.inkscape.org/namespaces/inkscape" xmlns:rdf="http://www.w3.org/1999/02/22-rdf-syntax-ns#" xmlns="http://www.w3.org/2000/svg" sodipodi:docname="python-pebbles.svg" inkscape:export-ydpi="90" inkscape:export-filename="/home/chrism/dev/single-binary-python/python-pebbles.png" height="100%" width="100%" inkscape:export-xdpi="90" version="1.1" xmlns:cc="http://creativecommons.org/ns#" xmlns:dc="http://purl.org/dc/elements/1.1/" inkscape:version="0.48.4 r9939" viewBox="0 0 993.65005 376.16001" xmlns:sodipodi="http://sodipodi.sourceforge.net/DTD/sodipodi-0.dtd">
 <sodipodi:namedview fit-margin-left="0" inkscape:showpageshadow="false" inkscape:zoom="1" borderopacity="1.0" inkscape:current-layer="g8" inkscape:cx="714.12394" inkscape:cy="100.46826" borderlayer="true" inkscape:window-maximized="0" showgrid="false" fit-margin-right="0" inkscape:document-units="px" bordercolor="#666666" inkscape:window-x="0" inkscape:window-y="0" fit-margin-bottom="0" inkscape:window-width="1920" inkscape:pageopacity="0.0" inkscape:pageshadow="2" pagecolor="#ffffff" inkscape:window-height="1080" fit-margin-top="0"/>
 <metadata>
  <rdf:RDF>
   <cc:Work rdf:about="">
    <dc:format>image/svg+xml</dc:format>
    <dc:type rdf:resource="http://purl.org/dc/dcmitype/StillImage"/>
    <dc:title/>
   </cc:Work>
  </rdf:RDF>
 </metadata>
 <g inkscape:label="Layer 1" transform="translate(0,-676.20001)" inkscape:groupmode="layer">
  <rect inkscape:export-filename="/home/chrism/dev/single-binary-python/python-pebbles.png" rx="1.8511" ry="2.0126" height="376.16" width="993.65" inkscape:export-xdpi="90" inkscape:export-ydpi="90" y="676.2" x="0" fill="#dad4c4"/>
  <g inkscape:export-ydpi="90" inkscape:export-xdpi="90" inkscape:export-filename="/home/chrism/dev/single-binary-python/python-pebbles.png" transform="translate(0,-24)">
   <path d="m480.52,937.65c-25.685-5.9489-55.586-14.188-70.975-37.814-12.073-25.899-9.6258-56.355-2.1903-83.18,8.6514-26.231,34.624-49.033,63.599-44.082,36.267,4.9109,66.483,28.622,93.1,52.17,18.998,16.497,32.386,41.367,27.443,67.106-1.5863,22.029-21.72,35.139-41.135,40.525-22.581,6.8988-46.662,8.1694-69.842,5.2758z" sodipodi:nodetypes="ccccccccc" inkscape:connector-curvature="0" stroke="#545863" stroke-miterlimit="4" stroke-dasharray="none" stroke-width="5" fill="#868a95"/>
   <path d="m480.52,935.65c-23.962-5.0558-49.8-13.553-64.498-34.52-15.304-22.327-16.566-52.642-4.8873-76.807,2.909-11.307,6.5813-23.203,15.769-31.071,13.08-15.095,34.782-21.506,54.021-16.298,18.787,3.6725,36.924,10.999,52.139,22.757,22.843,16.777,42.274,39.793,50.935,67.04,1.5654,15.067,3.6578,32.51-6.4876,45.198-14.865,18.957-40.245,25.308-63.312,25.785-11.258,0.25121-22.533-0.47818-33.679-2.0836z" sodipodi:nodetypes="ccccccccccc" inkscape:connector-curvature="0" fill="#868a95"/>
   <path d="m559.95,915.38c14.309-9.5132,18.926-27.784,14.305-43.685-7.3366-31.938-33.557-56.51-60.717-72.758-112.56-46.086,66.032,37.904,46.413,116.44z" sodipodi:nodetypes="ccccc" inkscape:connector-curvature="0" fill="#c6c8d4"/>
  </g>
  <g style="writing-mode:lr-tb;letter-spacing:0px;text-anchor:middle;word-spacing:0px;text-align:center;" font-family="Varela Round" transform="translate(0,-24)" inkscape:export-ydpi="90" inkscape:export-filename="/home/chrism/dev/single-binary-python/python-pebbles.png" font-size="52.69013214px" font-style="normal" inkscape:export-xdpi="90" font-stretch="normal" font-variant="normal" font-weight="normal" line-height="125%" fill="#545863">
   <path inkscape:connector-curvature="0" d="m318.04,1010.3c6.3755,0,12.751-5.0056,12.751-13.963,0-8.9573-6.3755-13.963-12.751-13.963-3.6883,0-6.5863,1.4753-9.01,4.0044v-1.3699c0-1.3172-1.0538-2.3711-2.4237-2.3711-1.3173,0-2.3711,1.0538-2.3711,2.3711v34.723c0,1.37,1.0538,2.4238,2.3711,2.4238,1.3699,0,2.4237-1.0538,2.4237-2.4238v-13.436c2.4238,2.5292,5.3217,4.0045,9.01,4.0045m-0.68498-23.447c5.0056,0,8.6412,3.2668,8.6412,9.4842s-3.6356,9.4842-8.6412,9.4842c-3.4248,0-6.2701-1.6861-8.325-3.9517v-11.065c2.0549-2.2657,4.9002-3.9518,8.325-3.9518"/>
   <path inkscape:connector-curvature="0" d="m359.83,985.1c0-1.3172-1.0538-2.4238-2.3711-2.4238-1.0538,0-1.7915,0.63228-2.213,1.5807l-8.2724,20.022-8.1143-20.128c-0.36883-0.84305-1.2119-1.4753-2.213-1.4753-1.3172,0-2.371,1.1065-2.371,2.4238,0,0.36883,0.10538,0.73766,0.21076,1.0011l9.9057,24.132-3.4249,8.7993c-0.10538,0.2634-0.15807,0.5796-0.15807,0.843,0,1.2646,1.0011,2.3184,2.2657,2.3184,1.1065,0,1.7915-0.685,2.213-1.6334l14.384-34.565c0.10538-0.26345,0.15807-0.57959,0.15807-0.89573"/>
   <path inkscape:connector-curvature="0" d="m379.51,1005.6c-0.89573,0-1.4753,0.4742-3.1614,0.4742-1.3173,0-3.4249-0.053-3.4249-3.1614v-15.912h5.954c1.1592,0,2.0549-0.89573,2.0549-2.0549s-0.89574-2.0549-2.0549-2.0549h-5.954v-4.2152c0-0.57959-0.42152-1.0538-1.0011-1.0538-0.42153,0-0.73767,0.31614-0.89574,0.47421l-7.1659,7.0078c-0.31614,0.26345-0.47421,0.57959-0.47421,0.89573,0,0.57959,0.42153,1.0011,1.0011,1.0011h3.741v16.334c0,6.5336,5.2163,6.9551,7.6928,6.9551,1.6861,0,3.1087-0.3688,4.3733-0.9484,0.73766-0.3689,1.2119-0.9485,1.2119-1.8442,0-1.1065-0.94842-1.8968-1.8968-1.8968"/>
   <path inkscape:connector-curvature="0" d="m401.26,982.41c-4.6894,0-7.5874,2.4238-9.8004,4.8475v-13.752c0-1.3699-1.1065-2.4238-2.4238-2.4238-1.3172,0-2.3711,1.0538-2.3711,2.4238v34.196c0,1.3172,1.0538,2.371,2.3711,2.371,1.3172,0,2.4238-1.0538,2.4238-2.371v-15.807c2.1076-2.6345,4.8475-5.0583,8.6412-5.0583,4.1098,0,5.7959,2.4238,5.7959,6.4282v14.437c0,1.3172,1.0538,2.371,2.3711,2.371,1.3172,0,2.4238-1.0538,2.4238-2.371v-14.964c0-5.6378-3.4249-10.327-9.4315-10.327"/>
   <path inkscape:connector-curvature="0" d="m430.63,982.41c-8.167,0-13.489,5.6378-13.489,13.963,0,8.325,5.3217,13.963,13.489,13.963,8.1143,0,13.489-5.6379,13.489-13.963,0-8.325-5.3744-13.963-13.489-13.963m0,23.552c-4.0571,0-8.6939-2.6345-8.6939-9.6423,0-6.9551,4.6367-9.5369,8.6939-9.5369,4.0044,0,8.6939,2.5818,8.6939,9.5369,0,7.0078-4.6894,9.6423-8.6939,9.6423"/>
   <path inkscape:connector-curvature="0" d="m465.38,982.41c-4.6894,0-7.5874,2.4238-9.8004,4.8475v-2.1603c0-1.3699-1.1065-2.4238-2.4238-2.4238-1.3172,0-2.3711,1.0538-2.3711,2.4238v22.604c0,1.3172,1.0538,2.371,2.3711,2.371,1.3172,0,2.4238-1.0538,2.4238-2.371v-15.807c2.1076-2.6345,4.8475-5.0583,8.6412-5.0583,4.1098,0,5.7959,2.4238,5.7959,6.4282v14.437c0,1.3172,1.0538,2.371,2.3711,2.371,1.3172,0,2.4237-1.0538,2.4237-2.371v-14.964c0-5.6378-3.4249-10.327-9.4315-10.327"/>
   <path inkscape:connector-curvature="0" d="m510.38,1010.3c6.3755,0,12.751-5.0056,12.751-13.963,0-8.9573-6.3755-13.963-12.751-13.963-3.6883,0-6.5863,1.4753-9.01,4.0044v-1.3699c0-1.3172-1.0538-2.3711-2.4238-2.3711-1.3172,0-2.3711,1.0538-2.3711,2.3711v34.723c0,1.37,1.0538,2.4238,2.3711,2.4238,1.3699,0,2.4238-1.0538,2.4238-2.4238v-13.436c2.4237,2.5292,5.3217,4.0045,9.01,4.0045m-0.68497-23.447c5.0056,0,8.6412,3.2668,8.6412,9.4842s-3.6356,9.4842-8.6412,9.4842c-3.4249,0-6.2701-1.6861-8.325-3.9517v-11.065c2.0549-2.2657,4.9002-3.9518,8.325-3.9518"/>
   <path inkscape:connector-curvature="0" d="m550.37,1004c-0.36883,0-0.63228,0.053-0.94842,0.2107-1.9495,1.0011-3.9518,1.6334-7.1132,1.6334-5.6905,0-8.6939-3.056-9.2208-7.7981h17.862c1.4753,0,2.4238-1.0538,2.4238-2.3711,0-7.0078-4.426-13.278-12.54-13.278-8.7466,0-12.593,6.8497-12.593,13.963,0,8.8519,5.0583,13.963,13.647,13.963,4.584,0,6.9024-1.0011,9.2208-2.3184,0.73767-0.4215,1.37-1.1065,1.37-1.9495,0-1.2119-1.0011-2.0549-2.1076-2.0549m-9.5369-17.546c3.3722,0,7.482,2.213,7.7981,7.6928h-15.544c0.31614-5.4798,4.3733-7.6928,7.7454-7.6928"/>
   <path inkscape:connector-curvature="0" d="m573.67,982.41c-3.6883,0-6.5863,1.4753-9.01,4.0044v-12.909c0-1.3699-1.0538-2.4238-2.4238-2.4238-1.3172,0-2.371,1.0538-2.371,2.4238v34.196c0,1.3172,1.0538,2.371,2.371,2.371,1.3699,0,2.4238-1.0538,2.4238-2.371v-1.37c2.4237,2.5292,5.3217,4.0045,9.01,4.0045,6.3755,0,12.751-5.0056,12.751-13.963,0-8.9573-6.3755-13.963-12.751-13.963m-0.68497,23.447c-3.4249,0-6.2701-1.6861-8.325-3.9517v-11.065c2.0549-2.2657,4.9002-3.9518,8.325-3.9518,5.0056,0,8.6412,3.2668,8.6412,9.4842s-3.6356,9.4842-8.6412,9.4842"/>
   <path inkscape:connector-curvature="0" d="m606.91,982.41c-3.6883,0-6.5863,1.4753-9.01,4.0044v-12.909c0-1.3699-1.0538-2.4238-2.4238-2.4238-1.3172,0-2.371,1.0538-2.371,2.4238v34.196c0,1.3172,1.0538,2.371,2.371,2.371,1.37,0,2.4238-1.0538,2.4238-2.371v-1.37c2.4237,2.5292,5.3217,4.0045,9.01,4.0045,6.3755,0,12.751-5.0056,12.751-13.963,0-8.9573-6.3755-13.963-12.751-13.963m-0.68497,23.447c-3.4248,0-6.2701-1.6861-8.325-3.9517v-11.065c2.0549-2.2657,4.9002-3.9518,8.325-3.9518,5.0056,0,8.6412,3.2668,8.6412,9.4842s-3.6356,9.4842-8.6412,9.4842"/>
   <path inkscape:connector-curvature="0" d="m629.14,971.08c-1.3173,0-2.3711,1.0538-2.3711,2.4238v34.196c0,1.3172,1.0538,2.371,2.3711,2.371,1.3699,0,2.4237-1.0538,2.4237-2.371v-34.196c0-1.3699-1.0538-2.4238-2.4237-2.4238"/>
   <path inkscape:connector-curvature="0" d="m660.89,1004c-0.36883,0-0.63228,0.053-0.94842,0.2107-1.9495,1.0011-3.9518,1.6334-7.1132,1.6334-5.6905,0-8.6939-3.056-9.2208-7.7981h17.862c1.4753,0,2.4238-1.0538,2.4238-2.3711,0-7.0078-4.426-13.278-12.54-13.278-8.7466,0-12.593,6.8497-12.593,13.963,0,8.8519,5.0583,13.963,13.647,13.963,4.584,0,6.9024-1.0011,9.2208-2.3184,0.73766-0.4215,1.37-1.1065,1.37-1.9495,0-1.2119-1.0011-2.0549-2.1076-2.0549m-9.5369-17.546c3.3722,0,7.482,2.213,7.7981,7.6928h-15.544c0.31614-5.4798,4.3733-7.6928,7.7454-7.6928"/>
   <path inkscape:connector-curvature="0" d="m673.55,990.47c0-2.1076,2.1603-3.6883,6.0594-3.6883,2.3184,0,4.3206,0.42152,6.0067,0.94842,0.21076,0.0527,0.42152,0.10538,0.68497,0.10538,1.2119,0,2.1076-1.0011,2.1076-2.1076,0-0.79035-0.5269-1.6861-1.528-2.0022-2.1603-0.79035-4.7421-1.3172-7.6401-1.3172-6.8497,0-10.275,3.5829-10.275,8.325,0,9.5896,15.807,6.9024,15.807,11.434,0,2.3711-1.7915,3.741-5.8486,3.741-3.1087,0-5.269-0.7376-7.1659-1.5807-0.36883-0.1581-0.63228-0.2107-0.94843-0.2107-1.2119,0-2.0549,1.0538-2.0549,2.1076,0,0.7376,0.36883,1.3699,0.89573,1.7387,2.6872,1.4754,5.7432,2.3711,9.5896,2.3711,6.7443,0,10.169-3.5303,10.169-7.7981,0-10.327-15.86-6.5863-15.86-12.066"/>
  </g>
 </g>
</svg>
