<?xml version="1.0" encoding="UTF-8" standalone="no"?>
<!-- Created with Inkscape (http://www.inkscape.org/) -->

<svg
   xmlns:dc="http://purl.org/dc/elements/1.1/"
   xmlns:cc="http://creativecommons.org/ns#"
   xmlns:rdf="http://www.w3.org/1999/02/22-rdf-syntax-ns#"
   xmlns:svg="http://www.w3.org/2000/svg"
   xmlns="http://www.w3.org/2000/svg"
   xmlns:sodipodi="http://sodipodi.sourceforge.net/DTD/sodipodi-0.dtd"
   xmlns:inkscape="http://www.inkscape.org/namespaces/inkscape"
   sodipodi:docname="python-pebbles.svg"
   inkscape:export-ydpi="90"
   inkscape:export-filename="python-pebbles.png"
   height="100%"
   width="100%"
   inkscape:export-xdpi="90"
   version="1.1"
   inkscape:version="0.48.4 r9939"
   viewBox="0 0 993.65 460.15999"
   id="svg2">
  <defs
     id="defs48" />
  <sodipodi:namedview
     fit-margin-left="0"
     inkscape:showpageshadow="false"
     inkscape:zoom="1"
     borderopacity="1.0"
     inkscape:current-layer="g8"
     inkscape:cx="714.12394"
     inkscape:cy="100.46825"
     borderlayer="true"
     inkscape:window-maximized="0"
     showgrid="false"
     fit-margin-right="0"
     inkscape:document-units="px"
     bordercolor="#666666"
     inkscape:window-x="0"
     inkscape:window-y="0"
     fit-margin-bottom="0"
     inkscape:window-width="1920"
     inkscape:pageopacity="0.0"
     inkscape:pageshadow="2"
     pagecolor="#ffffff"
     inkscape:window-height="1080"
     fit-margin-top="0"
     id="namedview4" />
  <metadata
     id="metadata6">
    <rdf:RDF>
      <cc:Work
         rdf:about="">
        <dc:format>image/svg+xml</dc:format>
        <dc:type
           rdf:resource="http://purl.org/dc/dcmitype/StillImage" />
        <dc:title />
      </cc:Work>
    </rdf:RDF>
  </metadata>
  <g
     inkscape:label="Layer 1"
     transform="translate(0,-592.20001)"
     inkscape:groupmode="layer"
     id="g8">
    <rect
       inkscape:export-filename="/home/chrism/dev/single-binary-python/python-pebbles.png"
       rx="1.8511"
       ry="2.0125999"
       height="460.16"
       width="993.65002"
       inkscape:export-xdpi="90"
       inkscape:export-ydpi="90"
       y="592.20001"
       x="0"
       id="rect10"
       style="fill:#dad4c4" />
    <g
       inkscape:export-ydpi="90"
       inkscape:export-xdpi="90"
       inkscape:export-filename="/home/chrism/dev/single-binary-python/python-pebbles.png"
       transform="translate(0,-106)"
       id="g12">
      <path
         d="m 480.52,937.65 c -25.685,-5.9489 -55.586,-14.188 -70.975,-37.814 -12.073,-25.899 -9.6258,-56.355 -2.1903,-83.18 8.6514,-26.231 34.624,-49.033 63.599,-44.082 36.267,4.9109 66.483,28.622 93.1,52.17 18.998,16.497 32.386,41.367 27.443,67.106 -1.5863,22.029 -21.72,35.139 -41.135,40.525 -22.581,6.8988 -46.662,8.1694 -69.842,5.2758 z"
         sodipodi:nodetypes="ccccccccc"
         inkscape:connector-curvature="0"
         stroke-miterlimit="4"
         id="path14"
         style="fill:#868a95;stroke:#545863;stroke-width:5;stroke-miterlimit:4;stroke-dasharray:none" />
      <path
         d="m 480.52,935.65 c -23.962,-5.0558 -49.8,-13.553 -64.498,-34.52 -15.304,-22.327 -16.566,-52.642 -4.8873,-76.807 2.909,-11.307 6.5813,-23.203 15.769,-31.071 13.08,-15.095 34.782,-21.506 54.021,-16.298 18.787,3.6725 36.924,10.999 52.139,22.757 22.843,16.777 42.274,39.793 50.935,67.04 1.5654,15.067 3.6578,32.51 -6.4876,45.198 -14.865,18.957 -40.245,25.308 -63.312,25.785 -11.258,0.25121 -22.533,-0.47818 -33.679,-2.0836 z"
         sodipodi:nodetypes="ccccccccccc"
         inkscape:connector-curvature="0"
         id="path16"
         style="fill:#868a95" />
      <path
         d="m 559.95,915.38 c 14.309,-9.5132 18.926,-27.784 14.305,-43.685 -7.3366,-31.938 -33.557,-56.51 -60.717,-72.758 -112.56,-46.086 66.032,37.904 46.413,116.44 z"
         sodipodi:nodetypes="ccccc"
         inkscape:connector-curvature="0"
         id="path18"
         style="fill:#c6c8d4" />
    </g>
    <g
       style="font-size:55.42342377px;font-style:normal;font-variant:normal;font-weight:normal;font-stretch:normal;text-align:center;line-height:125%;letter-spacing:0px;word-spacing:0px;writing-mode:lr-tb;text-anchor:middle;fill:#545863;fill-opacity:1;stroke:none;font-family:Varela Round;-inkscape-font-specification:Varela Round"
       id="text3025">
      <path
         d="m 331.68333,887.23578 c 0,-2.21694 2.27237,-3.87964 6.3737,-3.87964 2.43863,0 4.54472,0.44338 6.31827,0.99762 0.22169,0.0554 0.44339,0.11084 0.7205,0.11084 1.27474,0 2.21694,-1.05304 2.21694,-2.21693 0,-0.83135 -0.55424,-1.77355 -1.60728,-2.10609 -2.27236,-0.83135 -4.98811,-1.38559 -8.0364,-1.38559 -7.20503,0 -10.80756,3.7688 -10.80756,8.7569 0,10.08706 16.62702,7.26048 16.62702,12.02689 0,2.49405 -1.8844,3.93506 -6.152,3.93506 -3.26997,0 -5.54234,-0.77593 -7.53758,-1.6627 -0.38797,-0.16627 -0.66508,-0.2217 -0.99762,-0.2217 -1.27474,0 -2.16152,1.10847 -2.16152,2.21694 0,0.77593 0.38797,1.44101 0.9422,1.82897 2.82659,1.55186 6.04116,2.49406 10.08706,2.49406 7.0942,0 10.69673,-3.71338 10.69673,-8.20267 0,-10.86298 -16.68246,-6.92793 -16.68246,-12.69196"
         style=""
         id="path2991" />
      <path
         d="m 360.75119,870.4979 c 0,-1.55185 -1.27474,-2.82659 -2.8266,-2.82659 l -0.33254,0 c -1.55185,0 -2.82659,1.27474 -2.82659,2.82659 l 0,0.2217 c 0,1.55185 1.27474,2.82659 2.82659,2.82659 l 0.33254,0 c 1.55186,0 2.8266,-1.27474 2.8266,-2.82659 l 0,-0.2217 m -3.04829,8.53521 c -1.38558,0 -2.49405,1.10847 -2.49405,2.54948 l 0,23.77664 c 0,1.38559 1.10847,2.49406 2.49405,2.49406 1.44101,0 2.54948,-1.10847 2.54948,-2.49406 l 0,-23.77664 c 0,-1.44101 -1.10847,-2.54948 -2.54948,-2.54948"
         style=""
         id="path2993" />
      <path
         d="m 384.62829,878.75599 c -4.93268,0 -7.98097,2.54948 -10.30875,5.09896 l 0,-2.27236 c 0,-1.44101 -1.1639,-2.54948 -2.54948,-2.54948 -1.38559,0 -2.49406,1.10847 -2.49406,2.54948 l 0,23.77664 c 0,1.38559 1.10847,2.49406 2.49406,2.49406 1.38558,0 2.54948,-1.10847 2.54948,-2.49406 l 0,-16.62702 c 2.21693,-2.77117 5.09896,-5.32065 9.08944,-5.32065 4.32302,0 6.09657,2.54948 6.09657,6.76166 l 0,15.18601 c 0,1.38559 1.10847,2.49406 2.49406,2.49406 1.38558,0 2.54948,-1.10847 2.54948,-2.49406 l 0,-15.74025 c 0,-5.9303 -3.60253,-10.86299 -9.9208,-10.86299"
         style=""
         id="path2995" />
      <path
         d="m 426.71545,879.03311 c -1.38558,0 -2.49405,1.16389 -2.49405,2.54948 l 0,1.38558 c -2.27236,-2.43863 -5.32066,-4.21218 -9.47741,-4.21218 -6.15199,0 -13.41247,4.60016 -13.41247,14.41009 0,9.80994 7.26048,14.41009 13.41247,14.41009 4.15675,0 7.20505,-1.77355 9.47741,-4.21218 l 0,3.71337 c 0,5.98572 -2.8266,9.03402 -8.47979,9.03402 -3.76879,0 -6.81708,-0.9422 -9.14486,-2.10609 -0.27712,-0.11085 -0.60966,-0.22169 -0.99762,-0.22169 -1.27474,0 -2.21694,1.16389 -2.21694,2.27236 0,1.05304 0.44339,1.60728 0.99762,1.93982 2.6049,1.49643 7.37132,2.88201 11.86061,2.88201 8.31351,0 13.02451,-5.20981 13.02451,-14.52093 l 0,-24.77427 c 0,-1.38559 -1.1639,-2.54948 -2.54948,-2.54948 m -2.49405,8.42436 0,11.41722 c -2.05067,2.10609 -4.60015,4.10134 -8.42436,4.10134 -5.26522,0 -9.42199,-3.15914 -9.42199,-9.80995 0,-6.6508 4.15677,-9.80994 9.42199,-9.80994 3.82421,0 6.37369,1.99524 8.42436,4.10133"
         style=""
         id="path2997" />
      <path
         d="m 440.95148,866.83996 c -1.38559,0 -2.49406,1.10847 -2.49406,2.54947 l 0,35.9698 c 0,1.38559 1.10847,2.49406 2.49406,2.49406 1.441,0 2.54947,-1.10847 2.54947,-2.49406 l 0,-35.9698 c 0,-1.441 -1.10847,-2.54947 -2.54947,-2.54947"
         style=""
         id="path2999" />
      <path
         d="m 474.35102,901.4796 c -0.38797,0 -0.66508,0.0554 -0.99762,0.22169 -2.05067,1.05304 -4.15676,1.71813 -7.48217,1.71813 -5.98572,0 -9.14486,-3.21457 -9.6991,-8.20267 l 18.78854,0 c 1.55186,0 2.54948,-1.10847 2.54948,-2.49406 0,-7.3713 -4.65557,-13.9667 -13.19077,-13.9667 -9.20028,0 -13.2462,7.20505 -13.2462,14.68721 0,9.31112 5.32066,14.68721 14.35467,14.68721 4.82183,0 7.26047,-1.05305 9.6991,-2.43863 0.77592,-0.44339 1.441,-1.1639 1.441,-2.05067 0,-1.27474 -1.05304,-2.16151 -2.21693,-2.16151 m -10.03164,-18.456 c 3.54709,0 7.87012,2.32778 8.20266,8.09182 l -16.34991,0 c 0.33254,-5.76404 4.60015,-8.09182 8.14725,-8.09182"
         style=""
         id="path3001" />
      <path
         d="m 513.26259,878.75599 c -3.87963,0 -6.92793,1.55186 -9.4774,4.21218 l 0,-13.57874 c 0,-1.441 -1.10847,-2.54947 -2.54948,-2.54947 -1.38558,0 -2.49405,1.10847 -2.49405,2.54947 l 0,35.9698 c 0,1.38559 1.10847,2.49406 2.49405,2.49406 1.44101,0 2.54948,-1.10847 2.54948,-2.49406 l 0,-1.441 c 2.54947,2.66032 5.59777,4.21218 9.4774,4.21218 6.70623,0 13.41247,-5.26524 13.41247,-14.68721 0,-9.42197 -6.70624,-14.68721 -13.41247,-14.68721 m -0.7205,24.66343 c -3.60252,0 -6.59539,-1.77356 -8.7569,-4.15676 l 0,-11.63892 c 2.16151,-2.38321 5.15438,-4.15676 8.7569,-4.15676 5.26522,0 9.08944,3.43626 9.08944,9.97622 0,6.53996 -3.82422,9.97622 -9.08944,9.97622"
         style=""
         id="path3003" />
      <path
         d="m 539.47008,870.4979 c 0,-1.55185 -1.27474,-2.82659 -2.8266,-2.82659 l -0.33254,0 c -1.55185,0 -2.82659,1.27474 -2.82659,2.82659 l 0,0.2217 c 0,1.55185 1.27474,2.82659 2.82659,2.82659 l 0.33254,0 c 1.55186,0 2.8266,-1.27474 2.8266,-2.82659 l 0,-0.2217 m -3.04829,8.53521 c -1.38558,0 -2.49405,1.10847 -2.49405,2.54948 l 0,23.77664 c 0,1.38559 1.10847,2.49406 2.49405,2.49406 1.44101,0 2.54948,-1.10847 2.54948,-2.49406 l 0,-23.77664 c 0,-1.44101 -1.10847,-2.54948 -2.54948,-2.54948"
         style=""
         id="path3005" />
      <path
         d="m 563.34718,878.75599 c -4.93268,0 -7.98097,2.54948 -10.30876,5.09896 l 0,-2.27236 c 0,-1.44101 -1.16389,-2.54948 -2.54947,-2.54948 -1.38559,0 -2.49406,1.10847 -2.49406,2.54948 l 0,23.77664 c 0,1.38559 1.10847,2.49406 2.49406,2.49406 1.38558,0 2.54947,-1.10847 2.54947,-2.49406 l 0,-16.62702 c 2.21694,-2.77117 5.09896,-5.32065 9.08945,-5.32065 4.32302,0 6.09657,2.54948 6.09657,6.76166 l 0,15.18601 c 0,1.38559 1.10847,2.49406 2.49406,2.49406 1.38558,0 2.54947,-1.10847 2.54947,-2.49406 l 0,-15.74025 c 0,-5.9303 -3.60253,-10.86299 -9.92079,-10.86299"
         style=""
         id="path3007" />
      <path
         d="m 592.40984,878.75599 c -3.93506,0 -6.98335,0.88678 -9.58825,1.99524 -0.9422,0.38797 -1.44101,1.1639 -1.44101,2.10609 0,1.21932 0.9422,2.10609 2.05067,2.10609 0.22169,0 0.49881,-0.0554 0.7205,-0.11084 2.05067,-0.66508 4.26761,-1.33016 7.37132,-1.33016 4.9881,0 7.42673,1.93982 7.42673,6.8725 l 0,0.44339 -6.70623,0 c -8.64605,0 -12.74739,3.7688 -12.74739,8.97859 0,5.2098 4.21219,8.31352 9.03402,8.31352 5.2098,0 8.42436,-2.16152 10.4196,-4.21218 l 0,1.441 c 0,1.38559 1.10847,2.49406 2.49406,2.49406 1.38558,0 2.54948,-1.10847 2.54948,-2.49406 l 0,-15.68482 c 0,-5.43149 -3.49169,-10.91842 -11.5835,-10.91842 m -1.99524,24.94054 c -4.4893,0 -5.87489,-2.05067 -5.87489,-4.43387 0,-3.15913 3.15914,-4.37845 8.36894,-4.37845 l 6.04115,0 0,4.65557 c -1.88439,2.16151 -5.09895,4.15675 -8.5352,4.15675"
         style=""
         id="path3009" />
      <path
         d="m 626.53335,878.75599 -0.27712,0 c -3.82421,0 -6.70624,2.54948 -8.70148,5.2098 l 0,-2.3832 c 0,-1.38559 -1.16389,-2.54948 -2.54948,-2.54948 -1.38558,0 -2.49405,1.16389 -2.49405,2.54948 l 0,23.77664 c 0,1.38559 1.10847,2.49406 2.49405,2.49406 1.38559,0 2.54948,-1.10847 2.54948,-2.49406 l 0,-16.84872 c 1.93982,-2.88201 4.93269,-4.87726 8.59063,-4.87726 l 0.27712,0 c 1.44101,0 2.54948,-0.9422 2.54948,-2.3832 0,-1.38559 -1.05305,-2.49406 -2.43863,-2.49406"
         style=""
         id="path3011" />
      <path
         d="m 657.77658,881.58259 c 0,-1.38559 -1.10847,-2.54948 -2.49405,-2.54948 -1.10847,0 -1.8844,0.66508 -2.32779,1.6627 l -8.70148,21.0609 -8.5352,-21.17175 c -0.38797,-0.88677 -1.27474,-1.55185 -2.32779,-1.55185 -1.38558,0 -2.49405,1.16389 -2.49405,2.54948 0,0.38796 0.11085,0.77592 0.22169,1.05304 l 10.41961,25.38393 -3.60253,9.25571 c -0.11084,0.27712 -0.16627,0.60966 -0.16627,0.88678 0,1.33016 1.05305,2.43863 2.38321,2.43863 1.16389,0 1.8844,-0.72051 2.32778,-1.71813 l 15.1306,-36.35777 c 0.11085,-0.27711 0.16627,-0.60965 0.16627,-0.94219"
         style=""
         id="path3013" />
      <path
         d="m 283.77498,977.40969 c 6.70623,0 13.41247,-5.26524 13.41247,-14.68721 0,-9.42197 -6.70624,-14.68721 -13.41247,-14.68721 -3.87964,0 -6.92793,1.55186 -9.4774,4.21218 l 0,-1.44101 c 0,-1.38558 -1.10847,-2.49405 -2.54948,-2.49405 -1.38559,0 -2.49406,1.10847 -2.49406,2.49405 l 0,36.52404 c 0,1.44101 1.10847,2.54948 2.49406,2.54948 1.44101,0 2.54948,-1.10847 2.54948,-2.54948 l 0,-14.13297 c 2.54947,2.66032 5.59776,4.21218 9.4774,4.21218 m -0.7205,-24.66343 c 5.26522,0 9.08944,3.43626 9.08944,9.97622 0,6.53996 -3.82422,9.97621 -9.08944,9.97621 -3.60252,0 -6.59539,-1.77355 -8.7569,-4.15675 l 0,-11.63892 c 2.16151,-2.38321 5.15438,-4.15676 8.7569,-4.15676"
         style=""
         id="path3015" />
      <path
         d="m 327.72576,950.86187 c 0,-1.38559 -1.10847,-2.54948 -2.49406,-2.54948 -1.10846,0 -1.88439,0.66508 -2.32778,1.6627 l -8.70148,21.0609 -8.53521,-21.17175 c -0.38796,-0.88677 -1.27474,-1.55185 -2.32778,-1.55185 -1.38558,0 -2.49405,1.16389 -2.49405,2.54948 0,0.38796 0.11084,0.77592 0.22169,1.05304 l 10.4196,25.38393 -3.60252,9.25571 c -0.11085,0.27712 -0.16627,0.60966 -0.16627,0.88678 0,1.33016 1.05305,2.43863 2.38321,2.43863 1.16389,0 1.88439,-0.72051 2.32778,-1.71813 l 15.1306,-36.35777 c 0.11084,-0.27711 0.16627,-0.60965 0.16627,-0.94219"
         style=""
         id="path3017" />
      <path
         d="m 348.4368,972.477 c -0.9422,0 -1.55186,0.49881 -3.3254,0.49881 -1.38559,0 -3.60253,-0.0554 -3.60253,-3.3254 l 0,-16.73788 6.26285,0 c 1.21931,0 2.16151,-0.9422 2.16151,-2.16151 0,-1.21932 -0.9422,-2.16151 -2.16151,-2.16151 l -6.26285,0 0,-4.43388 c 0,-0.60966 -0.44339,-1.10847 -1.05304,-1.10847 -0.44339,0 -0.77593,0.33254 -0.9422,0.49881 l -7.53759,7.37132 c -0.33254,0.27712 -0.49881,0.60966 -0.49881,0.9422 0,0.60965 0.44339,1.05304 1.05305,1.05304 l 3.93506,0 0,17.18126 c 0,6.8725 5.48692,7.3159 8.09182,7.3159 1.77355,0 3.26998,-0.38797 4.60014,-0.99763 0.77593,-0.38796 1.27474,-0.99762 1.27474,-1.93982 0,-1.16389 -0.99762,-1.99524 -1.99524,-1.99524"
         style=""
         id="path3019" />
      <path
         d="m 371.31368,948.03527 c -4.93268,0 -7.98097,2.54948 -10.30875,5.09896 l 0,-14.46552 c 0,-1.441 -1.1639,-2.54947 -2.54948,-2.54947 -1.38558,0 -2.49405,1.10847 -2.49405,2.54947 l 0,35.9698 c 0,1.38559 1.10847,2.49406 2.49405,2.49406 1.38558,0 2.54948,-1.10847 2.54948,-2.49406 l 0,-16.62702 c 2.21693,-2.77117 5.09896,-5.32065 9.08944,-5.32065 4.32302,0 6.09658,2.54948 6.09658,6.76166 l 0,15.18601 c 0,1.38559 1.10846,2.49406 2.49405,2.49406 1.38558,0 2.54948,-1.10847 2.54948,-2.49406 l 0,-15.74025 c 0,-5.9303 -3.60253,-10.86299 -9.9208,-10.86299"
         style=""
         id="path3021" />
      <path
         d="m 402.20531,948.03527 c -8.59062,0 -14.1884,5.93032 -14.1884,14.68721 0,8.75689 5.59778,14.68721 14.1884,14.68721 8.5352,0 14.1884,-5.93032 14.1884,-14.68721 0,-8.75689 -5.6532,-14.68721 -14.1884,-14.68721 m 0,24.77427 c -4.2676,0 -9.14487,-2.77118 -9.14487,-10.14248 0,-7.31589 4.87727,-10.03164 9.14487,-10.03164 4.21218,0 9.14486,2.71575 9.14486,10.03164 0,7.3713 -4.93268,10.14248 -9.14486,10.14248"
         style=""
         id="path3023" />
      <path
         d="m 438.75272,948.03527 c -4.93267,0 -7.98097,2.54948 -10.30875,5.09896 l 0,-2.27236 c 0,-1.44101 -1.1639,-2.54948 -2.54948,-2.54948 -1.38558,0 -2.49405,1.10847 -2.49405,2.54948 l 0,23.77664 c 0,1.38559 1.10847,2.49406 2.49405,2.49406 1.38558,0 2.54948,-1.10847 2.54948,-2.49406 l 0,-16.62702 c 2.21693,-2.77117 5.09896,-5.32065 9.08944,-5.32065 4.32302,0 6.09658,2.54948 6.09658,6.76166 l 0,15.18601 c 0,1.38559 1.10847,2.49406 2.49405,2.49406 1.38558,0 2.54948,-1.10847 2.54948,-2.49406 l 0,-15.74025 c 0,-5.9303 -3.60253,-10.86299 -9.9208,-10.86299"
         style=""
         id="path3025" />
      <path
         d="m 493.18632,970.75887 c -0.38797,0 -0.66508,0.0554 -0.99762,0.2217 -2.05067,1.05304 -4.15676,1.71812 -7.48217,1.71812 -5.98572,0 -9.14486,-3.21456 -9.6991,-8.20266 l 18.78855,0 c 1.55185,0 2.54947,-1.10847 2.54947,-2.49406 0,-7.3713 -4.65557,-13.9667 -13.19077,-13.9667 -9.20028,0 -13.2462,7.20505 -13.2462,14.68721 0,9.31112 5.32066,14.68721 14.35467,14.68721 4.82183,0 7.26047,-1.05305 9.6991,-2.43863 0.77592,-0.44339 1.441,-1.1639 1.441,-2.05067 0,-1.27474 -1.05304,-2.16152 -2.21693,-2.16152 m -10.03164,-18.456 c 3.54709,0 7.87012,2.32779 8.20266,8.09182 l -16.34991,0 c 0.33254,-5.76403 4.60015,-8.09182 8.14725,-8.09182"
         style=""
         id="path3027" />
      <path
         d="m 525.07991,972.97581 -8.64605,-10.4196 8.7569,-10.30876 c 0.33254,-0.44339 0.55423,-0.99762 0.55423,-1.55185 0,-1.33017 -1.05304,-2.38321 -2.54948,-2.38321 -0.77592,0 -1.49643,0.33254 -1.93982,0.9422 l -7.70385,9.58825 -7.75928,-9.58825 c -0.38796,-0.55424 -1.10847,-0.9422 -1.99524,-0.9422 -1.38559,0 -2.49406,0.9422 -2.49406,2.49405 0,0.60966 0.2217,1.10847 0.60966,1.60728 l 8.59063,10.47503 -8.59063,10.14249 c -0.38796,0.49881 -0.55423,0.99762 -0.55423,1.55185 0,1.55186 0.9422,2.54948 2.3832,2.54948 0.88678,0 1.66271,-0.44339 2.16152,-1.10847 l 7.42674,-9.31113 7.87012,9.42198 c 0.44339,0.60965 1.16389,0.99762 1.93982,0.99762 1.71813,0 2.54948,-1.27474 2.54948,-2.54948 0,-0.44339 -0.16627,-1.10847 -0.60966,-1.60728"
         style=""
         id="path3029" />
      <path
         d="m 543.58959,948.03527 c -3.93506,0 -6.98336,0.88678 -9.58826,1.99524 -0.94219,0.38797 -1.44101,1.1639 -1.44101,2.10609 0,1.21932 0.9422,2.10609 2.05067,2.10609 0.22169,0 0.49881,-0.0554 0.72051,-0.11084 2.05066,-0.66508 4.2676,-1.33016 7.37131,-1.33016 4.9881,0 7.42674,1.93982 7.42674,6.8725 l 0,0.44339 -6.70623,0 c -8.64605,0 -12.74739,3.7688 -12.74739,8.97859 0,5.2098 4.21218,8.31352 9.03402,8.31352 5.20979,0 8.42436,-2.16152 10.4196,-4.21218 l 0,1.441 c 0,1.38559 1.10847,2.49406 2.49405,2.49406 1.38559,0 2.54948,-1.10847 2.54948,-2.49406 l 0,-15.68482 c 0,-5.43149 -3.49168,-10.91842 -11.58349,-10.91842 m -1.99525,24.94054 c -4.48929,0 -5.87488,-2.05067 -5.87488,-4.43387 0,-3.15913 3.15914,-4.37845 8.36894,-4.37845 l 6.04115,0 0,4.65557 c -1.8844,2.16151 -5.09896,4.15675 -8.53521,4.15675"
         style=""
         id="path3031" />
      <path
         d="m 596.8342,948.03527 c -6.09657,0 -8.92317,3.60253 -10.19791,5.70861 -1.16389,-2.88201 -4.04591,-5.70861 -8.47978,-5.70861 -5.26522,0 -7.87013,2.93744 -9.42198,5.09896 l 0,-2.27236 c 0,-1.38559 -1.1639,-2.54948 -2.54948,-2.54948 -1.38559,0 -2.49406,1.16389 -2.49406,2.54948 l 0,23.77664 c 0,1.38559 1.10847,2.49406 2.49406,2.49406 1.38558,0 2.54948,-1.10847 2.54948,-2.49406 l 0,-16.62702 c 1.49643,-2.49405 3.76879,-5.32065 7.98097,-5.32065 4.21218,0 5.65319,2.32779 5.65319,6.98335 l 0,14.96432 c 0,1.38559 1.10847,2.49406 2.49405,2.49406 1.38559,0 2.54948,-1.10847 2.54948,-2.49406 l 0,-16.62702 c 1.49643,-2.49405 3.7688,-5.32065 7.98097,-5.32065 4.21218,0 5.65319,2.32779 5.65319,6.98335 l 0,14.96432 c 0,1.38559 1.10847,2.49406 2.49406,2.49406 1.38558,0 2.54947,-1.10847 2.54947,-2.49406 l 0,-15.96194 c 0,-4.93268 -2.71575,-10.6413 -9.25571,-10.6413"
         style=""
         id="path3033" />
      <path
         d="m 629.19713,977.40969 c 6.70623,0 13.41247,-5.26524 13.41247,-14.68721 0,-9.42197 -6.70624,-14.68721 -13.41247,-14.68721 -3.87964,0 -6.92793,1.55186 -9.47741,4.21218 l 0,-1.44101 c 0,-1.38558 -1.10846,-2.49405 -2.54947,-2.49405 -1.38559,0 -2.49406,1.10847 -2.49406,2.49405 l 0,36.52404 c 0,1.44101 1.10847,2.54948 2.49406,2.54948 1.44101,0 2.54947,-1.10847 2.54947,-2.54948 l 0,-14.13297 c 2.54948,2.66032 5.59777,4.21218 9.47741,4.21218 m -0.7205,-24.66343 c 5.26522,0 9.08944,3.43626 9.08944,9.97622 0,6.53996 -3.82422,9.97621 -9.08944,9.97621 -3.60252,0 -6.59539,-1.77355 -8.75691,-4.15675 l 0,-11.63892 c 2.16152,-2.38321 5.15439,-4.15676 8.75691,-4.15676"
         style=""
         id="path3035" />
      <path
         d="m 652.57802,936.11924 c -1.38558,0 -2.49405,1.10847 -2.49405,2.54947 l 0,35.9698 c 0,1.38559 1.10847,2.49406 2.49405,2.49406 1.44101,0 2.54948,-1.10847 2.54948,-2.49406 l 0,-35.9698 c 0,-1.441 -1.10847,-2.54947 -2.54948,-2.54947"
         style=""
         id="path3037" />
      <path
         d="m 685.97758,970.75887 c -0.38797,0 -0.66508,0.0554 -0.99762,0.2217 -2.05067,1.05304 -4.15676,1.71812 -7.48217,1.71812 -5.98572,0 -9.14486,-3.21456 -9.6991,-8.20266 l 18.78855,0 c 1.55185,0 2.54947,-1.10847 2.54947,-2.49406 0,-7.3713 -4.65557,-13.9667 -13.19077,-13.9667 -9.20028,0 -13.2462,7.20505 -13.2462,14.68721 0,9.31112 5.32066,14.68721 14.35467,14.68721 4.82183,0 7.26047,-1.05305 9.6991,-2.43863 0.77592,-0.44339 1.441,-1.1639 1.441,-2.05067 0,-1.27474 -1.05304,-2.16152 -2.21693,-2.16152 m -10.03164,-18.456 c 3.54709,0 7.87012,2.32779 8.20266,8.09182 l -16.34991,0 c 0.33254,-5.76403 4.60015,-8.09182 8.14725,-8.09182"
         style=""
         id="path3039" />
      <path
         d="m 699.29652,956.51506 c 0,-2.21694 2.27237,-3.87964 6.37369,-3.87964 2.43863,0 4.54473,0.44338 6.31827,0.99762 0.2217,0.0554 0.44339,0.11084 0.72051,0.11084 1.27474,0 2.21694,-1.05304 2.21694,-2.21693 0,-0.83135 -0.55424,-1.77355 -1.60728,-2.10609 -2.27236,-0.83135 -4.98811,-1.38559 -8.0364,-1.38559 -7.20504,0 -10.80757,3.7688 -10.80757,8.7569 0,10.08706 16.62703,7.26048 16.62703,12.02689 0,2.49405 -1.8844,3.93506 -6.152,3.93506 -3.26998,0 -5.54234,-0.77593 -7.53759,-1.6627 -0.38796,-0.16627 -0.66508,-0.2217 -0.99762,-0.2217 -1.27473,0 -2.16151,1.10847 -2.16151,2.21694 0,0.77593 0.38796,1.44101 0.9422,1.82897 2.82659,1.55186 6.04115,2.49406 10.08706,2.49406 7.09419,0 10.69672,-3.71338 10.69672,-8.20267 0,-10.86298 -16.68245,-6.92793 -16.68245,-12.69196"
         style=""
         id="path3041" />
    </g>
  </g>
</svg>
