<!-- Created with Inkscape (http://www.inkscape.org/) -->
<svg xmlns:inkscape="http://www.inkscape.org/namespaces/inkscape" xmlns:rdf="http://www.w3.org/1999/02/22-rdf-syntax-ns#" xmlns="http://www.w3.org/2000/svg" sodipodi:docname="python-pebbles.svg" version="1.1" xmlns:cc="http://creativecommons.org/ns#" xmlns:dc="http://purl.org/dc/elements/1.1/" inkscape:version="0.48.4 r9939" viewBox="0 0 993.65 319.16" xmlns:sodipodi="http://sodipodi.sourceforge.net/DTD/sodipodi-0.dtd">
 <sodipodi:namedview fit-margin-left="0" inkscape:showpageshadow="false" inkscape:zoom="0.70710678" borderopacity="1.0" inkscape:current-layer="layer1" inkscape:cx="402.93666" inkscape:cy="-2.4866592" borderlayer="true" inkscape:window-maximized="0" showgrid="false" fit-margin-right="0" inkscape:document-units="px" bordercolor="#666666" inkscape:window-x="0" inkscape:window-y="0" fit-margin-bottom="0" inkscape:window-width="1920" inkscape:pageopacity="0.0" inkscape:pageshadow="2" pagecolor="#ffffff" inkscape:window-height="1080" fit-margin-top="0"/>
 <metadata>
  <rdf:RDF>
   <cc:Work rdf:about="">
    <dc:format>image/svg+xml</dc:format>
    <dc:type rdf:resource="http://purl.org/dc/dcmitype/StillImage"/>
    <dc:title/>
   </cc:Work>
  </rdf:RDF>
 </metadata>
 <g inkscape:label="Layer 1" inkscape:groupmode="layer" transform="translate(0,-733.19843)">
  <rect rx="1.8511" ry="2.0126" height="319.16" width="993.65" y="733.2" x="0" fill="#dad4c4"/>
  <g transform="matrix(1.6465666,0,0,1.6465666,-20.632489,-280.3047)">
   <path d="m304.36,738.48c-15.599-3.6129-33.759-7.402-43.105-21.751-7.3322-15.729-5.846-34.226-1.3302-50.517,5.2542-15.931,21.028-29.779,38.625-26.772,22.026,2.9825,40.377,17.383,56.542,31.684,11.538,10.019,19.669,25.123,16.667,40.755-0.9634,13.379-13.191,21.341-24.982,24.612-13.714,4.1898-28.339,3.7468-42.417,1.9895z" inkscape:connector-curvature="0" stroke="#545863" stroke-miterlimit="4" stroke-dasharray="none" stroke-width="3.03662181" fill="#868a95"/>
   <path inkscape:connector-curvature="0" fill="#868a95" d="m304.36,738.48c-14.553-3.0705-30.245-8.2308-39.171-20.965-9.2945-13.56-10.061-31.971-2.9682-46.647,1.7667-6.8669,3.997-14.092,9.5766-18.87,7.9435-9.1674,21.124-13.061,32.808-9.8982,11.41,2.2304,22.425,6.6797,31.665,13.821,13.873,10.189,25.674,24.167,30.934,40.715,0.95071,9.1506,2.2215,19.744-3.9401,27.45-9.0277,11.513-24.442,15.37-38.451,15.66-6.8375,0.15257-13.685-0.29041-20.454-1.2654z"/>
   <path d="m352.6,726.17c8.6903-5.7776,11.494-16.874,8.6875-26.531-4.4557-19.397-20.38-34.32-36.875-44.188-68.361-27.989,40.103,23.02,28.188,70.719z" sodipodi:nodetypes="cccc" inkscape:connector-curvature="0" fill="#c6c8d4"/>
  </g>
  <g style="writing-mode:lr-tb;letter-spacing:0px;text-anchor:middle;word-spacing:0px;text-align:center;" font-weight="normal" font-size="52.69013214px" font-stretch="normal" font-variant="normal" font-style="normal" font-family="Varela Round" line-height="125%" fill="#545863">
   <path style="" d="m318.04,1010.3c6.3755,0,12.751-5.0056,12.751-13.963,0-8.9573-6.3755-13.963-12.751-13.963-3.6883,0-6.5863,1.4753-9.01,4.0044v-1.3699c0-1.3172-1.0538-2.3711-2.4237-2.3711-1.3173,0-2.3711,1.0538-2.3711,2.3711v34.723c0,1.37,1.0538,2.4238,2.3711,2.4238,1.3699,0,2.4237-1.0538,2.4237-2.4238v-13.436c2.4238,2.5292,5.3217,4.0045,9.01,4.0045m-0.68498-23.447c5.0056,0,8.6412,3.2668,8.6412,9.4842s-3.6356,9.4842-8.6412,9.4842c-3.4248,0-6.2701-1.6861-8.325-3.9517v-11.065c2.0549-2.2657,4.9002-3.9518,8.325-3.9518"/>
   <path style="" d="m359.83,985.1c0-1.3172-1.0538-2.4238-2.3711-2.4238-1.0538,0-1.7915,0.63228-2.213,1.5807l-8.2724,20.022-8.1143-20.128c-0.36883-0.84305-1.2119-1.4753-2.213-1.4753-1.3172,0-2.371,1.1065-2.371,2.4238,0,0.36883,0.10538,0.73766,0.21076,1.0011l9.9057,24.132-3.4249,8.7993c-0.10538,0.2634-0.15807,0.5796-0.15807,0.843,0,1.2646,1.0011,2.3184,2.2657,2.3184,1.1065,0,1.7915-0.685,2.213-1.6334l14.384-34.565c0.10538-0.26345,0.15807-0.57959,0.15807-0.89573"/>
   <path style="" d="m379.51,1005.6c-0.89573,0-1.4753,0.4742-3.1614,0.4742-1.3173,0-3.4249-0.053-3.4249-3.1614v-15.912h5.954c1.1592,0,2.0549-0.89573,2.0549-2.0549s-0.89574-2.0549-2.0549-2.0549h-5.954v-4.2152c0-0.57959-0.42152-1.0538-1.0011-1.0538-0.42153,0-0.73767,0.31614-0.89574,0.47421l-7.1659,7.0078c-0.31614,0.26345-0.47421,0.57959-0.47421,0.89573,0,0.57959,0.42153,1.0011,1.0011,1.0011h3.741v16.334c0,6.5336,5.2163,6.9551,7.6928,6.9551,1.6861,0,3.1087-0.3688,4.3733-0.9484,0.73766-0.3689,1.2119-0.9485,1.2119-1.8442,0-1.1065-0.94842-1.8968-1.8968-1.8968"/>
   <path style="" d="m401.26,982.41c-4.6894,0-7.5874,2.4238-9.8004,4.8475v-13.752c0-1.3699-1.1065-2.4238-2.4238-2.4238-1.3172,0-2.3711,1.0538-2.3711,2.4238v34.196c0,1.3172,1.0538,2.371,2.3711,2.371,1.3172,0,2.4238-1.0538,2.4238-2.371v-15.807c2.1076-2.6345,4.8475-5.0583,8.6412-5.0583,4.1098,0,5.7959,2.4238,5.7959,6.4282v14.437c0,1.3172,1.0538,2.371,2.3711,2.371,1.3172,0,2.4238-1.0538,2.4238-2.371v-14.964c0-5.6378-3.4249-10.327-9.4315-10.327"/>
   <path style="" d="m430.63,982.41c-8.167,0-13.489,5.6378-13.489,13.963,0,8.325,5.3217,13.963,13.489,13.963,8.1143,0,13.489-5.6379,13.489-13.963,0-8.325-5.3744-13.963-13.489-13.963m0,23.552c-4.0571,0-8.6939-2.6345-8.6939-9.6423,0-6.9551,4.6367-9.5369,8.6939-9.5369,4.0044,0,8.6939,2.5818,8.6939,9.5369,0,7.0078-4.6894,9.6423-8.6939,9.6423"/>
   <path style="" d="m465.38,982.41c-4.6894,0-7.5874,2.4238-9.8004,4.8475v-2.1603c0-1.3699-1.1065-2.4238-2.4238-2.4238-1.3172,0-2.3711,1.0538-2.3711,2.4238v22.604c0,1.3172,1.0538,2.371,2.3711,2.371,1.3172,0,2.4238-1.0538,2.4238-2.371v-15.807c2.1076-2.6345,4.8475-5.0583,8.6412-5.0583,4.1098,0,5.7959,2.4238,5.7959,6.4282v14.437c0,1.3172,1.0538,2.371,2.3711,2.371,1.3172,0,2.4237-1.0538,2.4237-2.371v-14.964c0-5.6378-3.4249-10.327-9.4315-10.327"/>
   <path style="" d="m510.38,1010.3c6.3755,0,12.751-5.0056,12.751-13.963,0-8.9573-6.3755-13.963-12.751-13.963-3.6883,0-6.5863,1.4753-9.01,4.0044v-1.3699c0-1.3172-1.0538-2.3711-2.4238-2.3711-1.3172,0-2.3711,1.0538-2.3711,2.3711v34.723c0,1.37,1.0538,2.4238,2.3711,2.4238,1.3699,0,2.4238-1.0538,2.4238-2.4238v-13.436c2.4237,2.5292,5.3217,4.0045,9.01,4.0045m-0.68497-23.447c5.0056,0,8.6412,3.2668,8.6412,9.4842s-3.6356,9.4842-8.6412,9.4842c-3.4249,0-6.2701-1.6861-8.325-3.9517v-11.065c2.0549-2.2657,4.9002-3.9518,8.325-3.9518"/>
   <path style="" d="m550.37,1004c-0.36883,0-0.63228,0.053-0.94842,0.2107-1.9495,1.0011-3.9518,1.6334-7.1132,1.6334-5.6905,0-8.6939-3.056-9.2208-7.7981h17.862c1.4753,0,2.4238-1.0538,2.4238-2.3711,0-7.0078-4.426-13.278-12.54-13.278-8.7466,0-12.593,6.8497-12.593,13.963,0,8.8519,5.0583,13.963,13.647,13.963,4.584,0,6.9024-1.0011,9.2208-2.3184,0.73767-0.4215,1.37-1.1065,1.37-1.9495,0-1.2119-1.0011-2.0549-2.1076-2.0549m-9.5369-17.546c3.3722,0,7.482,2.213,7.7981,7.6928h-15.544c0.31614-5.4798,4.3733-7.6928,7.7454-7.6928"/>
   <path style="" d="m573.67,982.41c-3.6883,0-6.5863,1.4753-9.01,4.0044v-12.909c0-1.3699-1.0538-2.4238-2.4238-2.4238-1.3172,0-2.371,1.0538-2.371,2.4238v34.196c0,1.3172,1.0538,2.371,2.371,2.371,1.3699,0,2.4238-1.0538,2.4238-2.371v-1.37c2.4237,2.5292,5.3217,4.0045,9.01,4.0045,6.3755,0,12.751-5.0056,12.751-13.963,0-8.9573-6.3755-13.963-12.751-13.963m-0.68497,23.447c-3.4249,0-6.2701-1.6861-8.325-3.9517v-11.065c2.0549-2.2657,4.9002-3.9518,8.325-3.9518,5.0056,0,8.6412,3.2668,8.6412,9.4842s-3.6356,9.4842-8.6412,9.4842"/>
   <path style="" d="m606.91,982.41c-3.6883,0-6.5863,1.4753-9.01,4.0044v-12.909c0-1.3699-1.0538-2.4238-2.4238-2.4238-1.3172,0-2.371,1.0538-2.371,2.4238v34.196c0,1.3172,1.0538,2.371,2.371,2.371,1.37,0,2.4238-1.0538,2.4238-2.371v-1.37c2.4237,2.5292,5.3217,4.0045,9.01,4.0045,6.3755,0,12.751-5.0056,12.751-13.963,0-8.9573-6.3755-13.963-12.751-13.963m-0.68497,23.447c-3.4248,0-6.2701-1.6861-8.325-3.9517v-11.065c2.0549-2.2657,4.9002-3.9518,8.325-3.9518,5.0056,0,8.6412,3.2668,8.6412,9.4842s-3.6356,9.4842-8.6412,9.4842"/>
   <path style="" d="m629.14,971.08c-1.3173,0-2.3711,1.0538-2.3711,2.4238v34.196c0,1.3172,1.0538,2.371,2.3711,2.371,1.3699,0,2.4237-1.0538,2.4237-2.371v-34.196c0-1.3699-1.0538-2.4238-2.4237-2.4238"/>
   <path style="" d="m660.89,1004c-0.36883,0-0.63228,0.053-0.94842,0.2107-1.9495,1.0011-3.9518,1.6334-7.1132,1.6334-5.6905,0-8.6939-3.056-9.2208-7.7981h17.862c1.4753,0,2.4238-1.0538,2.4238-2.3711,0-7.0078-4.426-13.278-12.54-13.278-8.7466,0-12.593,6.8497-12.593,13.963,0,8.8519,5.0583,13.963,13.647,13.963,4.584,0,6.9024-1.0011,9.2208-2.3184,0.73766-0.4215,1.37-1.1065,1.37-1.9495,0-1.2119-1.0011-2.0549-2.1076-2.0549m-9.5369-17.546c3.3722,0,7.482,2.213,7.7981,7.6928h-15.544c0.31614-5.4798,4.3733-7.6928,7.7454-7.6928"/>
   <path style="" d="m673.55,990.47c0-2.1076,2.1603-3.6883,6.0594-3.6883,2.3184,0,4.3206,0.42152,6.0067,0.94842,0.21076,0.0527,0.42152,0.10538,0.68497,0.10538,1.2119,0,2.1076-1.0011,2.1076-2.1076,0-0.79035-0.5269-1.6861-1.528-2.0022-2.1603-0.79035-4.7421-1.3172-7.6401-1.3172-6.8497,0-10.275,3.5829-10.275,8.325,0,9.5896,15.807,6.9024,15.807,11.434,0,2.3711-1.7915,3.741-5.8486,3.741-3.1087,0-5.269-0.7376-7.1659-1.5807-0.36883-0.1581-0.63228-0.2107-0.94843-0.2107-1.2119,0-2.0549,1.0538-2.0549,2.1076,0,0.7376,0.36883,1.3699,0.89573,1.7387,2.6872,1.4754,5.7432,2.3711,9.5896,2.3711,6.7443,0,10.169-3.5303,10.169-7.7981,0-10.327-15.86-6.5863-15.86-12.066"/>
  </g>
 </g>
</svg>
